<svg id="Layer_1" data-name="Layer 1" xmlns="http://www.w3.org/2000/svg" viewBox="0 0 1773.29 1773.29"><defs><style>.cls-1{fill:#4abec4;}.cls-2{fill:#20763f;}</style></defs><title>Stark_DMS_Logo</title><path class="cls-1" d="M896,1591.27q0,67.47-.06,134.93c0,5.15,3.51,7.61,6.37,10.87,8.92,10.2,9.2,22.19,1,30.68-6.89,7.1-20.92,7.93-29.06,1.72-8.71-6.66-9.48-19.31-1.64-30.56,2-2.87,4.55-5.28,4.55-9.16,0-46.68,0-93.37,0-143.32-22.24,24-42.33,45.61-62.38,67.28-5.35,5.78-10.42,11.83-15.93,17.45a20.25,20.25,0,0,0-6.39,15c-.23,13-8.28,20.75-20.24,21.16-11.51.39-20.15-6.64-22.27-18.11-1.9-10.31,4.33-21.75,16.2-23.25,13-1.64,20-9.73,27.61-18,25.54-27.65,50.87-55.49,76.54-83,4.57-4.91,6.1-10,6.08-16.53q-.26-90,.06-180c0-8.2-2.5-11.48-10.4-14.9-34.23-14.8-65.22-35.71-97.51-54.15-86.27-49.25-172.09-99.28-258.07-149-5.3-3.07-11.67-5.4-15.39-9.87-9.09-10.9-17.38-8.35-28.3-2.57-52.22,27.64-104.83,54.53-157.41,81.48-6.16,3.16-10.44,7-12.86,13.77-14.36,40.41-29.08,80.71-43.83,121-2,5.44-.65,9.91,1.33,15,4.46,11.54-.35,23-10.66,27.57a21.59,21.59,0,0,1-28.73-10.87c-4.7-10.16-.83-22.34,10.21-27.74,5.86-2.86,8.09-6.75,10.09-12.45,10.86-31,22.23-61.76,33.36-92.64,1.14-3.15,4.27-6.78,1.28-9.7-3.19-3.11-6.46.64-9.32,2.1q-53.76,27.52-107.37,55.35c-5.39,2.79-9.68,6.24-12.41,12.61-4.91,11.48-16.26,15-27.39,10.34s-15.74-15.52-11.79-27c3.6-10.52,15-16.29,26.66-12.41,5.81,1.93,10.41,2.16,16-.76,38.29-20,76.77-39.71,115.16-59.54,1.43-.74,2.63-1.94,5.55-4.12-38.71-10.45-75.71-20.38-112.67-30.49-5.27-1.44-9.2,1-13.65,2.86-12.06,5-22.64,1.51-28.14-8.88-5.31-10-2.49-21.9,6.62-27.87,10.55-6.89,22.2-5,29.69,6,3.84,5.65,8.65,8.2,14.69,9.87,40.51,11.14,81,22.24,121.46,33.65a19,19,0,0,0,15-1.62q83.89-43.56,167.94-86.83c6-3.06,8.59-6.3,6.66-13.31-1.48-5.37-1.73-11.21-1.73-16.85q-.17-197.74-.13-395.48c0-1.76-.45-3.67.1-5.24,7-20-4.37-27.56-20.57-35.5-47.93-23.51-95.06-48.68-142.34-73.49-7.06-3.7-13.31-4.5-21.13-2.26-39.54,11.32-79.25,22-118.92,32.9a21.45,21.45,0,0,0-13.3,9.57c-6.81,10.45-19.36,13.3-28.62,7.71a22.52,22.52,0,0,1-7.84-29.89c5.71-10.08,16.54-13.12,28.4-7.79,4,1.78,7.32,4.22,12.29,2.81,34.93-9.91,69.94-19.53,104.9-29.3a15.87,15.87,0,0,0,3.38-1.95c-.27-4.68-4.42-5.07-7.22-6.53-36.07-18.87-72.28-37.5-108.29-56.49-5.2-2.74-9.49-2.36-14.89-.81-13.25,3.82-24.3-1.58-28-12.64-3.52-10.54,1.45-22.65,10.92-26.64,11.93-5,23.33-.6,29.36,11.88,1.53,3.18,2.39,6.3,5.92,8.12,40.76,21,81.46,42.07,123.11,63.61,1.3-7.42-2.14-12.29-3.93-17.4-10.13-28.91-20.48-57.74-30.71-86.62-2.23-6.3-5.18-11.3-11.82-14.68-10.48-5.33-13.61-17.38-8.87-28.28,3.84-8.85,15.6-13.66,25.61-10.47,10.87,3.45,18,13.47,14,24.57-4.11,11.27-1,20.38,2.55,30.24,13,36.25,26,72.48,38.78,108.82,2,5.77,5.17,9.85,10.54,12.64q80.42,41.78,160.75,83.69c4.05,2.1,7.72,3.7,12,0,27.61-24.22,61.35-38.64,92.57-57C666.23,533.23,754,483,841.52,432.45c7.19-4.15,14.44-9,22.3-11,11-2.83,12.63-9.21,12.57-19.14q-.58-87.37-.09-174.75c0-8.48-2.41-15-8.21-21.19Q826.21,161.94,784.82,117c-4.33-4.67-8.84-7.5-15.63-8.13-12.25-1.12-20.11-10.78-19.54-22A21.56,21.56,0,0,1,770.1,66.56c12.09-.62,22.15,7.7,22.32,20.76.11,8.56,4.06,13.46,9.31,19,22.82,24.21,45.24,48.78,67.86,73.18,1.09,1.18,2.65,1.93,5.95,4.28.66-9.8,2.1-17.89,1.59-25.86-2-30.64-.39-61.29-.94-91.93-.23-12.48,1-24.52-7.11-36.3-6.1-8.89-3-20,7.1-26.23,9.53-5.84,19.39-5.25,27.56,3.22,7.36,7.64,8.26,21.58.15,28.57-7.49,6.44-8.07,13.57-8,22.06.14,37.23-.05,74.46.07,111.68,0,4.53-1.63,9.55.44,11.81,10.83-9.5,22-18.44,32.15-28.47,12.72-12.63,24.74-26,36.7-39.35,7.67-8.58,15.81-16.23,15.63-30.11-.14-11,10.14-15.74,20.69-16,10.05-.25,19.32,8.84,20.32,18.78,1.19,11.81-5,22.18-16.4,22.93-9.65.64-14.61,5.61-20.35,11.86q-40.43,44-81.58,87.32c-5.6,5.87-7.85,11.76-7.81,19.78.31,59.56.24,119.12.28,178.68,0,5.15-1.24,10.31,5.69,12.93,34.63,13.06,64.79,34.46,96.63,52.67,89.28,51,178.19,102.75,267.24,154.22,3.41,2,7.61,3.46,9.86,6.38,10.77,14,21.37,10.08,34.74,2.89,48.15-25.92,96.94-50.68,145.65-75.58a26.67,26.67,0,0,0,14-16.09q20.79-58.78,42.42-117.28c2.11-5.76,1.86-10.59-.48-16.31a21.48,21.48,0,0,1,10.53-27.7c9.56-4.52,22.37-.5,27.45,8.62,5.92,10.62,3,23.78-8.28,29.36-6.86,3.39-9.33,8.27-11.57,14.56-10.71,30.09-21.69,60.08-32.4,90.17-1.26,3.55-3.65,7.07-1.64,13.2,19.92-10,39.59-19.84,59.13-29.89s38.74-20.38,58.22-30.36c4.88-2.49,8.17-5.47,10.51-10.79,5.49-12.49,17.68-17.11,29.25-12.17,9.55,4.08,14.93,16.48,11.49,26.49-3.84,11.16-14.83,16.63-27.78,13.18-4.31-1.14-8.15-2.77-12.56-.46-39.89,20.81-79.82,41.55-122.65,63.84,24.53,7,46.09,13.31,67.71,19.41,11,3.08,22.09,5.52,33,8.85,9.31,2.84,17.62,4.51,27.39-.51,10.37-5.34,19.84-.45,25.55,9.44,5.47,9.48,4,19-4.1,26.23-8.47,7.58-20,9.61-27.12.71-12.08-15.17-29.13-17.45-45.41-22.14-31.52-9.09-63.27-17.4-94.82-26.42a20.3,20.3,0,0,0-16.25,1.63c-52.35,27.41-104.7,54.81-157.29,81.77-7.79,4-11.69,8-9.15,17.18,1.38,4.94,1.26,10.39,1.26,15.62q.08,197.08,0,394.17c0,1.31.37,2.76,0,3.92-8.14,22.58,6.92,29.64,23.41,37.88,49.34,24.66,98.15,50.36,147,76,7.54,4,14.31,4.59,22.51,2.24,38.71-11.08,77.56-21.64,116.4-32.25,6.1-1.67,10.72-4.26,14.55-9.94,7.52-11.19,19.88-13.44,29.67-6.77,9.6,6.54,12.69,17.61,7.72,27.65-5.49,11.07-16.44,14.83-29,9.15-5-2.26-9.53-3.77-15-2.22q-53.52,15.1-107.29,30.06c1.39,5,5.81,5.59,9,7.29,36.07,18.88,72.24,37.56,108.3,56.47a17,17,0,0,0,14.75,1.15c12.43-4.2,24.06,1.37,28.07,12.21,3.67,9.93-2.17,22.52-12.62,27.18-10,4.47-21.65.28-27.31-11.23a25.1,25.1,0,0,0-11.56-11.83q-53.61-27.86-107.3-55.52c-2.9-1.5-6.28-5-9.45-2.21s-.33,6.61.79,9.75c11.48,32.14,23.21,64.2,34.5,96.41,1.88,5.35,5.68,6.91,10.06,9.18,10.62,5.5,13.38,15.36,9.68,25.73-3.48,9.73-11.36,15.53-22.61,14.1s-19.83-9-17.49-19.14c7.08-30.65-11.24-54.58-18.89-81.18-6.27-21.82-15.37-42.81-22.78-64.32-2.13-6.2-5.27-10.33-11.29-13.41q-83.61-42.75-166.86-86.18c-7.17-3.75-11.36-4-17.89,2.16-16.08,15.06-36.6,23.77-55.45,34.76q-128.74,75-258.07,149.07c-21.59,12.36-42.16,26.83-66,35-5.55,1.9-5.87,5.64-5.87,10.2q0,92.63-.11,185.26a15.91,15.91,0,0,0,4.64,11.69q44.25,47.6,88.23,95.45c3.56,3.86,6.89,6.47,13.14,6.69,13.3.46,20.5,9.65,20,22.72-.43,11.72-9.5,20.08-21.58,19.91-11.57-.17-19.41-8.13-20.27-21.11-.29-4.44-.27-8.78-3.5-12.28q-38.73-41.88-77.47-83.74Zm365.52-704.41h-.07c0-65.68-.12-131.36.11-197,0-12.7-4.85-21.33-15.89-27.71Q1074.09,563,902.82,463.34c-13.17-7.67-24.41-5.57-36.79,1.6Q698.54,562.08,530.66,658.55c-14.19,8.14-20.62,18.8-20.59,34.87q.29,194.42.12,388.83c0,14.27,5.16,24.46,18.38,31.92,49.16,27.73,97.77,56.45,146.65,84.67,64.42,37.2,129,74.18,193.31,111.52,12.25,7.1,23.21,7.52,35.54-.22,18.51-11.63,37.84-22,56.78-32.92q140.92-81.51,281.86-163c13-7.49,19.17-17.48,19-33C1261.23,1016.47,1261.53,951.67,1261.53,886.86Z"/><path class="cls-2" d="M889.71,868.86q125.46,0,250.92,0c41.6,0,64.46,22.7,64.55,63.93.07,35.91-.28,71.82.11,107.72.28,26.23-10.7,45.29-33.67,57.84Q1042,1169.19,912.5,1240.26c-22.88,12.6-44.59,11.93-67.13-1.08q-122.25-70.56-245-140.32c-22.68-12.94-34.21-31.77-33.15-58.06.44-10.92-.41-20.23-9.29-29.57-14.44-15.18-11.18-40.36,4.17-54.47a40.61,40.61,0,0,1,55,.26c15.18,14.31,18.18,39.36,3.56,54.53-10.7,11.09-8.61,22.82-8.44,35.08.12,8.34,7.18,11.38,13.25,14.86,71.79,41.09,143.44,82.43,215.44,123.16,47.77,27,29.68,26.84,78,.7,75-40.62,149.66-82.06,224.84-122.45,13-7,17.83-15.39,17.36-30-1-31.93-.32-63.92-.33-95.88,0-20.6-3.09-23.71-23.34-23.71q-252.9,0-505.79.13c-24.79,0-44.44-8.14-57.08-30.23a54.42,54.42,0,0,1-7.26-27.6c.07-44.66-.09-89.33.07-134,.07-21.92,9.58-39.32,28.63-49.89Q723.44,601,851.44,531.37c19-10.33,38.81-9.56,57.76,1.35q133.69,77,267.32,154.1c20,11.59,28.59,29.88,28.69,52.64.07,14.12-.65,27.08,10.85,39.76,14,15.47,8,40.54-8.83,53.54a40.47,40.47,0,0,1-53.74-60.16c13.91-14.61,9.87-41.89-7.51-51.89q-126.92-73-253.69-146.18c-8.3-4.81-15.31-6.44-24.32-1.46q-121.22,67-242.84,133.31c-9.79,5.32-13.52,11.81-13.38,22.86.53,39.85.14,79.7.22,119.54,0,16.11,3.93,20,20.25,20q128.74.09,257.49,0Z"/></svg>